<svg width="73" height="45" viewBox="0 0 73 45" fill="none" xmlns="http://www.w3.org/2000/svg">
<g opacity="0.9">
<path d="M23.9266 42.8807C24.0113 42.9109 24.1022 42.9412 24.193 42.9776C24.8348 43.1955 25.634 43.4438 26.2456 43.6315C26.8813 43.8131 27.7351 44.0129 28.3769 44.1643C20.0272 42.1238 12.9007 37.5524 7.20306 30.5651L8.8076 32.545C9.00741 32.7691 9.183 32.9689 9.35254 33.1505C9.94591 33.7681 10.6483 34.4826 11.3627 35.1728C11.8048 35.5785 12.3557 36.0629 13.1187 36.741C13.5122 37.0559 13.9724 37.4071 14.4447 37.7583C18.4954 40.7433 21.2624 41.8453 23.9326 42.8867L23.9266 42.8807Z" fill="#262626"/>
<path d="M2.43773 22.0522C9.07385 37.7222 25.6944 43.7225 31.5676 44.7095C31.5979 44.7095 31.6221 44.7155 31.6524 44.7216C31.9612 44.7579 32.3487 44.8003 32.6515 44.8306L33.2691 44.8851C33.2691 44.8851 33.2933 44.8851 33.2993 44.8851C29.8359 44.5642 6.01615 37.5345 0.65155 15.9126C0.712099 16.2335 0.766593 16.5483 0.827141 16.839C1.22676 18.3466 1.8383 20.3205 2.35296 21.8221C2.38324 21.9008 2.41351 21.9735 2.43773 22.0522Z" fill="#262626"/>
<path d="M35.3821 44.9942C35.5214 44.9942 35.6546 45.0002 35.7938 45.0002H35.8544C35.8544 45.0002 35.9028 45.0002 35.921 45.0002C36.0784 45.0002 36.2298 45.0002 36.3872 45.0002C36.5204 45.0002 36.6536 45.0002 36.7687 45.0002C36.7747 45.0002 36.7808 45.0002 36.7868 45.0002C34.0379 44.9518 -5.29441 30.0448 1.06318 -0.241629C1.06318 -0.241629 1.06318 -0.241641 1.06318 -0.235586C0.845209 0.618148 0.633289 1.76858 0.451643 2.62837C0.276052 3.73035 0.130736 5.21379 0.00963879 6.32183C-0.638231 33.49 31.7855 44.6491 35.3821 44.9942Z" fill="#262626"/>
<path d="M4.59956 -8.9973C-11.3792 21.8098 33.3783 43.5588 38.7308 44.9091C38.7671 44.9091 38.8034 44.9091 38.8398 44.903L39.0759 44.8849C39.1122 44.8849 39.1486 44.8788 39.1909 44.8727C39.4634 44.8485 39.7904 44.8122 40.0689 44.788C40.1052 44.788 40.1416 44.7819 40.1718 44.7759C33.8324 39.9562 26.1185 37.3284 20.0092 32.1454C17.0181 29.6085 10.0126 23.6687 5.91952 15.7247C-2.2727 -0.169308 5.01735 -10.3051 8.59577 -14.6646C8.46861 -14.5193 8.34752 -14.374 8.22642 -14.2347L7.62093 -13.5142C6.67638 -12.2124 5.48357 -10.4262 4.62984 -9.05179C4.61773 -9.03362 4.61167 -9.01546 4.59956 -8.9973Z" fill="#262626"/>
<path d="M27.8198 -26.4353C27.8198 -26.4353 27.8621 -26.4474 27.8864 -26.4535C27.8319 -26.4414 27.7653 -26.4293 27.7168 -26.4172C27.3172 -26.3263 26.7965 -26.1871 26.4029 -26.0781C25.5916 -25.8541 24.5199 -25.521 23.7327 -25.2244C23.2483 -25.0427 22.6065 -24.8005 22.1343 -24.6007C21.5651 -24.3585 20.8203 -24.0073 20.2572 -23.747C19.682 -23.4806 18.9373 -23.087 18.3924 -22.7661C17.7505 -22.3907 16.9574 -21.9002 16.255 -21.4461C9.01944 -16.469 3.30971 -8.48269 4.09684 0.520879C5.96173 21.7613 30.0177 36.3293 39.0697 41.815C41.1606 43.0825 42.2666 43.9624 42.3877 44.4549C42.3877 44.4549 42.4301 44.4489 42.4483 44.4428C42.9448 44.352 43.5684 44.2188 44.0649 44.1158C44.0831 44.1158 44.1013 44.1098 44.1194 44.1037C44.295 44.0432 44.4222 43.7889 44.5433 43.6436C44.1315 42.8504 43.3262 42.2812 38.9728 39.4294C27.7713 32.0909 16.4972 23.6504 9.91555 11.6921C-4.937 -15.3065 23.8659 -29.2751 36.2057 -25.9873C33.8141 -26.9137 30.9017 -27.0166 27.8258 -26.4414L27.8198 -26.4353Z" fill="#262626"/>
<path d="M40.3409 36.4141C47.1587 41.2338 48.7814 42.3782 46.6259 43.4438C46.6501 43.4378 46.6743 43.4317 46.6925 43.4257C47.0255 43.3227 47.4009 43.1956 47.7702 43.0745C48.0246 42.9897 48.2728 42.8989 48.521 42.8081C51.5727 41.3912 48.9146 39.4295 42.557 34.749C35.5273 29.5721 26.772 23.1298 19.3488 13.7084C-2.56981 -14.1076 20.8261 -27.8763 36.1934 -25.9811C18.7312 -29.7654 -18.8453 -5.4007 40.3349 36.4141H40.3409Z" fill="#262626"/>
<path d="M44.3494 31.001C52.2994 37.0982 55.2784 39.3809 51.3306 41.6575C51.3609 41.6454 51.3912 41.6273 51.4214 41.6152C52.0814 41.3003 52.9049 40.8644 53.5406 40.5434C56.6165 38.7452 55.3874 36.6562 53.6012 34.6702C46.1234 26.3569 36.1935 20.847 28.5341 12.7396C3.88477 -13.3569 20.4206 -26.3385 36.1995 -25.9752C20.1178 -27.4404 -8.59428 -9.59075 44.3494 31.0071V31.001Z" fill="#262626"/>
<path d="M50.4951 25.9576C58.0697 32.0245 60.7702 35.2881 56.7255 38.5698C57.4158 38.0855 58.2937 37.3952 58.984 36.8684C59.3291 36.5838 59.6924 36.275 60.0375 35.9662C63.18 33.0902 61.418 31.5341 40.2745 12.9094C9.62482 -14.0832 23.4359 -23.6135 33.4265 -25.6056C24.3684 -23.9163 -0.892462 -15.2154 50.4951 25.9576Z" fill="#262626"/>
<path d="M49.0842 14.078C61.648 24.1896 66.3647 28.8155 62.2777 33.841C62.308 33.8108 62.3322 33.7866 62.3564 33.7563C62.9982 33.066 63.7732 32.1518 64.3787 31.4554C64.3908 31.4373 64.4029 31.4252 64.415 31.407C67.9935 26.7205 64.5725 21.7858 49.8228 10.324C11.3382 -19.5749 31.7249 -25.1575 36.2055 -25.9749C32.9419 -25.5631 5.58002 -20.9312 49.0902 14.078H49.0842Z" fill="#262626"/>
<path d="M51.6819 5.98847C65.8987 16.6087 69.8101 22.0399 67.152 27.4711C67.261 27.2895 67.3639 27.1139 67.4669 26.9383L67.5637 26.7687C67.6364 26.6416 67.703 26.5265 67.7696 26.4115L68.581 24.8494C68.6778 24.6495 68.7747 24.4497 68.8716 24.256C72.0443 16.978 60.0194 8.22271 52.0391 2.41611C26.0335 -16.5053 29.073 -23.4623 36.1996 -25.9691C30.1145 -24.3827 19.4337 -18.0856 51.6819 6.00059V5.98847Z" fill="#262626"/>
<path d="M52.3719 -2.25819C64.7843 6.48502 72.2197 12.334 70.6757 19.6301C70.7484 19.3819 70.8271 19.1336 70.8937 18.8914C71.1419 17.9832 71.3902 16.9599 71.59 16.1425C72.6556 8.87064 65.1476 3.32439 52.8139 -5.11002C44.664 -10.6865 29.4966 -21.0646 36.1994 -25.9811C25.6881 -21.0585 45.7721 -6.90832 52.3719 -2.25819Z" fill="#262626"/>
<path d="M53.2866 -8.68825C67.2733 0.387974 72.0264 4.50528 72.2807 10.7539C72.2868 10.6328 72.2989 10.5056 72.3049 10.3845L72.3473 8.85872L72.311 7.38133C72.3049 7.2118 72.2989 7.04831 72.2868 6.87877C71.7479 0.321365 63.0107 -5.08561 51.9606 -11.9155C44.1862 -16.717 35.3764 -22.1664 36.2059 -25.9749C32.5669 -22.124 45.0399 -14.0347 53.2927 -8.68219L53.2866 -8.68825Z" fill="#262626"/>
<path d="M52.3781 -14.4828C65.2628 -7.16849 70.1128 -3.61428 71.6568 1.74427C71.463 0.817875 71.1481 -0.356777 70.8878 -1.34977C70.8272 -1.55564 70.7667 -1.75544 70.7061 -1.9613C68.6112 -7.41067 61.5936 -11.3221 49.4052 -17.7281C40.7891 -22.2632 37.9494 -24.0373 36.1995 -25.9749C37.2046 -23.0927 43.5683 -19.478 52.3781 -14.4767V-14.4828Z" fill="#262626"/>
</g>
</svg>
