<svg width="40" height="29" viewBox="0 0 40 29" fill="none" xmlns="http://www.w3.org/2000/svg">
<path d="M23.7977 0.728291C23.8904 0.738222 23.9798 0.748155 24.0725 0.761397C23.9831 0.748155 23.8904 0.738222 23.7977 0.728291Z" fill="#262626"/>
<path d="M29.5215 2.57559L29.0216 2.30744C29.0084 2.30082 28.9918 2.29089 28.9786 2.28427C28.9256 2.25779 28.8726 2.23129 28.8197 2.20481C28.8528 2.22136 28.8892 2.23792 28.9256 2.25448C28.8461 2.21144 28.7667 2.17171 28.6872 2.12868L28.3363 1.96977C28.3661 1.98301 28.3992 1.99957 28.429 2.01281C27.9987 1.81418 27.5617 1.63541 27.1115 1.47651C25.1881 1.02298 23.2051 0.834274 19.792 0.777996C26.1183 1.08918 28.29 1.99295 29.0183 2.30413C29.1871 2.3902 29.356 2.47959 29.5215 2.57559Z" fill="#262626"/>
<path d="M24.4863 0.576055C24.238 0.516466 23.9897 0.456878 23.7778 0.410531L23.6454 0.384041C22.9171 0.268175 21.4704 0.496605 19.792 0.784617C19.9377 0.764754 20.08 0.7482 20.2257 0.731648C23.0032 0.413842 23.8076 0.466812 24.4863 0.579369V0.576055Z" fill="#262626"/>
<path d="M22.4371 0.178778C22.2186 0.148984 21.9471 0.119189 21.7352 0.0960159C21.7352 0.0960159 21.7286 0.0960159 21.7253 0.0960159C21.6856 0.105947 21.679 0.10926 19.792 0.781287C21.9835 0.198643 22.1987 0.19533 22.4933 0.188709C22.4768 0.188709 22.4569 0.185402 22.4371 0.182092V0.178778Z" fill="#262626"/>
<path d="M20.7852 0.0529587C20.7554 0.0430273 20.719 0.0297935 20.6892 0.0198621C20.6892 0.0198621 20.6859 0.0198621 20.6826 0.0198621C20.4774 0.00993062 20.3516 0.00661732 20.3383 0.00661732C20.2225 0.00661732 20.0768 0 19.9543 0C20.186 0.00993143 20.1927 0.0165496 20.2986 0.152279C20.2545 0.311182 20.0867 0.520844 19.7954 0.781268C20.7257 0.264833 20.7554 0.165515 20.7886 0.0529587H20.7852Z" fill="#262626"/>
<path d="M1.33279 27.0433C4.96107 35.6108 14.0483 38.8915 17.2595 39.4311C17.2761 39.4311 17.2893 39.4344 17.3058 39.4377C17.4747 39.4576 17.6865 39.4808 17.8521 39.4973L18.1897 39.5271C18.1897 39.5271 18.203 39.5271 18.2063 39.5271C16.3127 39.3517 3.28928 35.5082 0.356201 23.6865C0.389306 23.8619 0.4191 24.0341 0.452205 24.193C0.670697 25.0173 1.00505 26.0965 1.28645 26.9175C1.303 26.9605 1.31955 27.0003 1.33279 27.0433Z" fill="#262626"/>
<path d="M19.2391 0.152299C19.6894 0.321134 19.7125 0.420446 19.792 0.781288C20.1197 0.0430515 19.4378 0.0298136 18.8353 0.0198822C18.6234 0.0298136 18.342 0.0496712 18.1334 0.0662236L17.9348 0.0827821C18.2427 0.0629192 18.8849 0.0198802 19.2391 0.152299Z" fill="#262626"/>
<path d="M19.3452 39.5867C19.4213 39.5867 19.4941 39.59 19.5703 39.59H19.6034C19.6034 39.59 19.6299 39.59 19.6398 39.59C19.7259 39.59 19.8086 39.59 19.8947 39.59C19.9675 39.59 20.0404 39.59 20.1033 39.59C20.1066 39.59 20.1099 39.59 20.1132 39.59C18.6102 39.5636 -2.89462 31.4132 0.581382 14.8541C0.581382 14.8541 0.581382 14.8541 0.581382 14.8575C0.462205 15.3242 0.346338 15.9532 0.247024 16.4233C0.15102 17.0258 0.0715682 17.8369 0.00535868 18.4427C-0.348862 33.2968 17.3787 39.398 19.3452 39.5867Z" fill="#262626"/>
<path d="M16.1042 0.344284C16.0645 0.350905 16.0214 0.360839 15.9817 0.36746C18.4016 -0.04635 19.4113 0.549536 19.7954 0.781269C19.1101 0.0264805 17.9183 0.03972 16.1075 0.344284H16.1042Z" fill="#262626"/>
<path d="M2.51466 10.0672C-6.22169 26.9109 18.2494 38.8021 21.1758 39.5404C21.1957 39.5404 21.2155 39.5404 21.2354 39.537L21.3645 39.5271C21.3844 39.5271 21.4042 39.5238 21.4274 39.5205C21.5764 39.5072 21.7552 39.4874 21.9074 39.4741C21.9273 39.4741 21.9472 39.4708 21.9637 39.4675C18.4976 36.8324 14.2801 35.3956 10.9398 32.5619C9.30445 31.1748 5.47423 27.9272 3.23635 23.5839C-1.24273 14.8939 2.74308 9.35211 4.69958 6.96857C4.63006 7.04802 4.56385 7.12747 4.49764 7.20361L4.16659 7.59756C3.65016 8.30931 2.99799 9.2859 2.53121 10.0374C2.52459 10.0473 2.52128 10.0572 2.51466 10.0672Z" fill="#262626"/>
<path d="M15.2103 0.532952C15.2103 0.532952 15.2334 0.526332 15.2467 0.523021C15.2169 0.529642 15.1805 0.536263 15.154 0.542884C14.9355 0.592541 14.6508 0.668681 14.4356 0.728269C13.992 0.850757 13.406 1.03283 12.9757 1.19505C12.7108 1.29436 12.3599 1.42678 12.1017 1.53603C11.7905 1.66845 11.3833 1.86045 11.0755 2.00281C10.761 2.14847 10.3538 2.36365 10.0558 2.5391C9.70493 2.74435 9.27126 3.0125 8.88724 3.26078C4.93122 5.98199 1.80944 10.3485 2.23981 15.2712C3.25943 26.8843 16.412 34.8494 21.3611 37.8487C22.5043 38.5416 23.1091 39.0228 23.1753 39.292C23.1753 39.292 23.1984 39.2887 23.2084 39.2854C23.4798 39.2357 23.8208 39.1629 24.0923 39.1066C24.1022 39.1066 24.1121 39.1033 24.1221 39.1C24.2181 39.0669 24.2876 38.9279 24.3538 38.8484C24.1287 38.4147 23.6884 38.1036 21.3082 36.5443C15.1838 32.532 9.01966 27.9172 5.42117 21.379C-2.69943 6.61761 13.0485 -1.01966 19.7953 0.777925C18.4876 0.271422 16.8953 0.215143 15.2136 0.529639L15.2103 0.532952Z" fill="#262626"/>
<path d="M22.0564 34.8957C25.784 37.5309 26.6712 38.1566 25.4927 38.7392C25.5059 38.7359 25.5192 38.7326 25.5291 38.7293C25.7112 38.673 25.9164 38.6035 26.1184 38.5373C26.2574 38.4909 26.3931 38.4413 26.5289 38.3916C28.1974 37.617 26.7441 36.5444 23.2681 33.9854C19.4246 31.1549 14.6376 27.6326 10.579 22.4815C-1.40493 7.27312 11.3867 -0.254903 19.7887 0.781276C10.2413 -1.28777 -10.3035 12.0336 22.0531 34.8957H22.0564Z" fill="#262626"/>
<path d="M24.2479 31.9362C28.5946 35.2698 30.2233 36.5179 28.0649 37.7626C28.0814 37.756 28.098 37.7461 28.1145 37.7395C28.4754 37.5673 28.9256 37.329 29.2732 37.1535C30.9549 36.1703 30.2829 35.0282 29.3063 33.9423C25.2179 29.3971 19.7887 26.3845 15.6009 21.9518C2.12398 7.68364 11.1649 0.585972 19.792 0.7846C10.9994 -0.0165351 -4.69891 9.74275 24.2479 31.9395V31.9362Z" fill="#262626"/>
<path d="M27.608 29.1785C31.7494 32.4956 33.2259 34.28 31.0145 36.0743C31.3919 35.8094 31.8719 35.432 32.2493 35.144C32.438 34.9884 32.6366 34.8196 32.8253 34.6508C34.5435 33.0783 33.5801 32.2275 22.0199 22.0445C5.26231 7.28636 12.8135 2.07566 18.2758 0.986515C13.3233 1.91014 -0.487989 6.6673 27.608 29.1785Z" fill="#262626"/>
<path d="M19.5702 0.797794C19.163 0.83421 18.726 0.897111 18.2725 0.986494C18.8551 0.877248 19.312 0.820968 19.5702 0.797794Z" fill="#262626"/>
<path d="M19.792 0.781227C19.792 0.781227 19.6993 0.787844 19.5702 0.797775C19.643 0.791155 19.7192 0.784538 19.792 0.781227Z" fill="#262626"/>
<path d="M26.8368 22.6834C33.706 28.2119 36.2849 30.7411 34.0503 33.4888C34.0668 33.4723 34.0801 33.459 34.0933 33.4425C34.4442 33.0651 34.868 32.5652 35.199 32.1845C35.2056 32.1746 35.2123 32.1679 35.2189 32.158C37.1754 29.5957 35.305 26.8977 27.2406 20.6309C6.19924 4.28379 17.3456 1.23154 19.7954 0.784622C18.011 1.00973 3.05098 3.54225 26.8401 22.6834H26.8368Z" fill="#262626"/>
<path d="M28.2569 18.2606C36.0299 24.0671 38.1685 27.0366 36.7152 30.0061C36.7748 29.9068 36.831 29.8108 36.8873 29.7148L36.9403 29.6221C36.98 29.5526 37.0164 29.4897 37.0528 29.4268L37.4964 28.5727C37.5494 28.4634 37.6024 28.3542 37.6554 28.2483C39.39 24.2691 32.8154 19.4821 28.4522 16.3074C14.2337 5.96213 15.8956 2.15839 19.792 0.787853C16.465 1.6552 10.6253 5.0981 28.2569 18.2672V18.2606Z" fill="#262626"/>
<path d="M28.6343 13.7517C35.4208 18.532 39.486 21.7299 38.6419 25.719C38.6816 25.5833 38.7246 25.4476 38.761 25.3152C38.8968 24.8186 39.0325 24.2591 39.1417 23.8122C39.7244 19.8363 35.6194 16.8039 28.876 12.1924C24.4201 9.14349 16.1273 3.46933 19.792 0.781227C14.045 3.47265 25.0259 11.2092 28.6343 13.7517Z" fill="#262626"/>
<path d="M29.1342 10.236C36.7814 15.1984 39.3801 17.4496 39.5192 20.866C39.5225 20.7998 39.5291 20.7302 39.5324 20.664L39.5556 19.8298L39.5357 19.022C39.5324 18.9293 39.5291 18.84 39.5225 18.7473C39.2278 15.162 34.4508 12.2058 28.4092 8.47155C24.1586 5.84634 19.3418 2.86691 19.7953 0.784622C17.8057 2.89009 24.6253 7.31288 29.1375 10.2393L29.1342 10.236Z" fill="#262626"/>
<path d="M28.6376 7.0679C35.6823 11.067 38.334 13.0102 39.1781 15.94C39.0722 15.4335 38.9001 14.7912 38.7577 14.2483C38.7246 14.1358 38.6915 14.0265 38.6584 13.914C37.513 10.9345 33.6761 8.79598 27.0121 5.29349C22.3013 2.81394 20.7487 1.84397 19.792 0.784622C20.3415 2.36041 23.8208 4.33676 28.6376 7.07122V7.0679Z" fill="#262626"/>
<path d="M37.6521 11.3284C37.6223 11.2688 37.5958 11.2092 37.5661 11.1496L37.1655 10.3584L36.8973 9.88504C36.8477 9.79897 36.798 9.7129 36.7451 9.62682C35.838 8.21656 34.196 7.16714 31.8455 5.93564C27.9624 3.90301 23.7978 2.53578 19.7954 0.781227C21.0435 1.57574 23.3376 2.62848 26.2409 3.9626C33.9444 7.5015 36.318 9.03094 37.6554 11.3284H37.6521Z" fill="#262626"/>
<path d="M35.2486 7.47833C35.2122 7.43198 35.1791 7.39225 35.1394 7.3426C35.1162 7.3128 35.093 7.28631 35.0665 7.25652C35.0367 7.2201 35.0069 7.18369 34.9772 7.14728C34.6858 6.80961 34.3581 6.44214 34.0966 6.14751C32.3751 4.38302 27.5617 2.57882 19.792 0.781227C31.5773 4.31351 33.8582 5.96875 35.2486 7.47833Z" fill="#262626"/>
<path d="M32.0176 4.26385C31.7296 4.04204 31.4151 3.81031 31.1436 3.61168C31.0873 3.57196 31.0311 3.53555 30.9748 3.49582C29.1044 2.31729 25.347 1.4036 19.792 0.781227C23.2481 1.29435 29.4288 2.45302 32.2626 4.46248C32.1798 4.39296 32.097 4.32674 32.0176 4.26385Z" fill="#262626"/>
<path d="M24.1751 0.777933C24.6352 0.840832 25.0921 0.923594 25.5357 1.02622C26.3269 1.15864 26.4262 1.18844 27.0287 1.38376C27.0121 1.37713 26.9923 1.3672 26.9757 1.36389C26.6745 1.24472 26.264 1.10567 25.9561 0.996425H25.9495C25.2245 0.761381 24.3737 0.731593 23.3872 0.691867C23.4335 0.695178 23.4766 0.701791 23.5229 0.705102C23.0197 0.658755 22.5066 0.632271 21.9868 0.632271C21.189 0.671997 21.0831 0.678625 19.792 0.78456C21.8445 0.698488 22.7714 0.715037 24.1751 0.781246V0.777933ZM23.7944 0.731591C23.8871 0.741523 23.9764 0.751456 24.0691 0.764698C23.9797 0.751456 23.8871 0.741523 23.7944 0.731591Z" fill="#262626"/>
</svg>
